<?xml version="1.0" encoding="UTF-8"?>
<!-- Generated by Pixelmator Pro 3.7 -->
<svg width="666" height="666" viewBox="0 0 666 666" xmlns="http://www.w3.org/2000/svg">
    <g id="Layer-2">
        <path id="Path" fill="#66806c" stroke="#231f20" stroke-width="4.166667" stroke-linecap="round" d="M 198.868164 267.182007 C 188.725952 266.344299 175.493576 265.662292 160.013718 265.974426 C 142.220367 266.333221 111.024933 268.118408 110.952789 270.841156 C 110.897835 272.915527 128.888458 276.224976 206.443573 281.676727 C 203.918442 276.845154 201.393295 272.01358 198.868164 267.182007 Z"/>
        <path id="path1" fill="#66806c" stroke="#231f20" stroke-width="4.166667" stroke-linecap="round" d="M 90.913002 269.659058 C 91.188126 271.49054 102.555893 271.400726 122.70182 271.241577 C 142.715088 271.083496 159.41391 269.924622 171.433167 268.815094 L 199.155121 268.815094 C 196.85817 260.717438 194.561218 252.619812 192.264252 244.522186 C 108.422722 261.233887 90.559631 267.306732 90.913002 269.659058 Z"/>
    </g>
    <g id="Layer-1">
        <path id="path2" fill="#363143" stroke="none" d="M 406.618988 215.981628 C 407.594879 215.969208 409.678528 215.7612 410.355499 216.230164 C 411.358612 216.925049 416.868896 237.348267 418.077667 237.85199 C 418.629303 238.081909 429.478333 238.070801 430.034515 237.85199 C 431.27829 237.362701 436.979004 218.892365 437.756622 216.230164 C 438.740997 215.410858 453.778595 217.768616 454.197357 218.715454 L 454.197357 240.585815 C 454.466919 241.226288 466.71817 244.952942 467.399689 244.81076 C 468.947296 244.487885 480.145752 227.221832 481.349365 226.916809 C 483.018494 226.493896 493.365784 232.733978 495.797241 233.37851 C 496.452148 234.472015 489.401001 253.251678 490.067932 255.497406 C 490.261261 256.148468 500.597412 263.228302 501.277466 263.201721 C 502.393158 263.158142 516.363037 250.71637 518.714539 249.284241 L 531.418762 259.970886 C 530.305969 262.57132 519.368713 278.22168 519.461853 279.355988 C 519.517029 280.027344 526.99762 288.54599 528.18042 289.545593 L 549.603149 281.592712 L 557.823486 294.764618 C 557.846741 296.441162 540.604248 309.03183 540.386414 310.173309 C 540.271301 310.776276 544.372742 321.244324 544.870178 321.60553 C 546.880554 323.065308 564.84613 320.30307 568.534851 320.859955 L 572.271362 336.51712 C 569.916748 338.047577 552.216553 344.617279 551.845032 345.961151 C 551.678284 346.564392 553.069092 357.822906 553.339661 358.387482 C 554.1474 360.073425 575.0672 362.904419 575.758728 364.352142 L 574.513245 380.009308 C 569.974609 381.239136 556.531128 380.920074 553.090515 382.494598 C 552.404724 382.808441 549.707581 394.522736 549.852234 395.169464 C 550.317566 397.250732 570.020447 405.610626 570.278564 407.098755 L 565.047363 421.76181 C 563.80719 422.361298 547.529663 418.143158 544.621094 418.282471 C 542.311279 418.393066 536.843628 428.762451 536.898926 429.466125 C 536.985779 430.570007 550.643066 443.323547 552.343262 445.371887 L 544.372009 457.798218 C 542.265259 459.248779 525.272827 448.782806 523.198364 449.099792 C 522.569397 449.195862 514.937866 457.798401 514.978088 458.792297 C 515.05658 460.733765 526.077576 477.039368 525.938538 478.177399 L 514.230713 487.869934 C 511.635468 486.20874 497.919769 473.489166 496.295441 473.455383 C 495.718597 473.44339 486.726227 479.111572 486.580505 479.668579 C 485.971619 481.995697 492.84906 500.58374 491.811615 502.284515 C 489.478912 502.720337 479.875885 508.139893 478.360138 507.752075 C 476.921143 507.383911 466.044739 489.103821 464.908691 488.864075 C 464.376404 488.751709 454.897186 491.54245 454.446442 491.846375 C 452.445557 493.195435 452.905762 511.722015 452.702728 514.959351 L 437.258423 516.947571 C 436.403961 514.422058 431.037872 496.316162 430.034515 495.822815 C 429.509277 495.564575 418.835327 495.757019 418.326752 496.07132 C 417.194305 496.771179 412.556763 514.718872 411.102814 517.196106 L 396.405823 514.959351 C 395.289368 511.223694 396.314087 494.754944 394.911224 492.591919 C 394.633057 492.163086 385.708313 489.359314 385.196259 489.361115 C 383.182129 489.368195 383.204926 489.858795 381.957947 491.1008 C 380.01947 493.031494 371.694946 507.414429 370.748383 507.752075 C 369.668854 508.137177 356.768463 502.582062 356.549622 501.53894 C 356.848389 497.963196 362.445038 482.34613 362.029846 480.165619 C 361.919586 479.586517 352.904419 473.494232 352.314911 473.455383 C 351.051544 473.372162 336.600525 486.162048 334.379608 487.869934 L 322.671844 477.680359 C 324.084259 474.871704 333.994751 459.644135 333.632324 457.798218 C 333.517151 457.211609 326.004211 449.190094 325.411957 449.099792 C 324.044128 448.891144 305.976288 458.53418 304.487457 458.046753 C 303.807831 457.824219 297.782013 447.555603 296.26712 446.365967 C 296.051208 444.343811 311.497772 430.850403 311.711395 429.466125 C 311.804657 428.862 306.738861 418.873199 306.23114 418.530945 C 305.040131 417.728088 286.901306 421.308472 284.061157 421.76181 L 278.331818 407.098755 C 278.583008 405.733643 298.459808 396.796295 298.758118 395.666504 C 298.919891 395.053772 296.664276 383.734589 296.26712 383.240173 C 294.904785 381.544189 274.057129 380.858704 273.349792 379.263733 L 273.598907 363.606567 C 276.526215 362.827759 294.883545 359.839966 295.76889 358.387482 C 296.080627 357.876099 296.930115 347.033691 296.76532 346.458191 C 296.284485 344.779205 277.39386 337.993408 276.588135 336.765656 C 275.686127 335.391327 279.536316 323.331024 280.075531 320.859955 L 302.494659 322.848175 C 303.121155 322.618835 307.868256 311.359131 307.725769 310.670349 C 307.488373 309.522858 292.476013 297.59137 290.786865 295.261688 L 299.505432 281.592712 C 302.605255 282.529144 318.627441 290.304504 320.429932 290.042633 C 321.09436 289.946106 329.073944 280.518768 329.148499 279.853027 C 329.275085 278.721985 318.465393 262.931549 317.19162 260.467957 L 328.899384 249.284241 C 331.641602 250.437347 345.687012 263.604828 346.834656 263.698792 C 347.547577 263.757141 358.39563 256.195831 358.54245 255.497406 C 358.969055 253.467407 353.301727 237.87439 352.564026 234.621155 C 352.769989 232.132355 365.113525 228.428986 367.260956 226.419769 C 369.172943 228.489532 379.593628 244.997711 380.712433 245.3078 C 381.397339 245.49765 393.661163 241.248291 393.914825 240.585815 L 393.914825 218.218384 C 397.91803 218.03714 402.740448 216.031067 406.618988 215.981628 Z"/>
        <g id="Group">
            <path id="path3" fill="#ffffff" stroke="none" d="M 439.500366 402.550385 C 421.08432 405.066376 406.333496 394.651733 399.145966 378.194763 C 389.748657 336.9487 438.49707 313.243622 462.915863 344.643646 C 479.586975 366.080963 466.418457 398.872833 439.500366 402.550385 Z"/>
            <path id="path4" fill="#ffffff" stroke="none" d="M 424.554291 423.923706 C 426.721588 437.909424 423.955231 454.866455 425.05249 469.155579 C 424.96051 469.315918 422.489899 471.588379 422.312347 471.640808 C 414.959442 473.814148 388.635803 462.960205 381.459747 458.717468 C 376.50351 455.787109 366.583893 450.90332 369.253784 444.551422 C 370.159882 442.395752 400.651703 412.709106 402.882477 411.994415 C 408.404388 410.22525 422.979462 415.065277 424.554291 421.18988 C 424.740173 421.912903 424.425781 423.094666 424.554291 423.923706 Z"/>
            <path id="path5" fill="#ffffff" stroke="none" d="M 464.908691 411.497375 L 499.782867 445.296997 C 500.89032 450.947296 488.773224 457.668793 484.089508 460.208588 C 474.288483 465.523315 462.528625 469.475311 451.457214 471.143768 C 449.623749 471.420074 447.897949 471.939087 445.97699 471.640808 C 445.032806 471.091187 443.99704 470.125122 443.485992 469.155579 C 444.028503 459.641602 441.022308 426.594879 444.482391 419.69873 C 445.430573 417.808929 449.447479 415.529541 450.959015 413.982635 C 454.198364 412.610474 461.431915 410.867828 464.908691 411.497375 Z"/>
            <path id="path6" fill="#ffffff" stroke="none" d="M 454.446442 262.878326 C 464.78891 264.448608 477.587158 269.50528 486.580505 274.807617 C 490.853638 277.327026 500.826782 282.870209 499.782867 288.228088 C 493.024017 292.395233 470.126465 320.680023 464.908691 322.02774 C 461.852386 322.817108 458.436096 321.303467 455.442841 321.03363 C 449.77948 318.87561 445.417511 316.669922 443.485992 310.59549 L 442.987762 265.612152 C 445.653717 260.213531 449.554413 262.13562 454.446442 262.878326 Z"/>
            <path id="path7" fill="#ffffff" stroke="none" d="M 516.721741 301.151459 C 520.377502 303.035919 531.924072 325.013519 533.660645 329.732056 C 535.192688 333.894897 540.161194 351.73288 539.140869 355.081757 C 538.84845 356.041595 536.941956 356.865631 536.151611 357.318512 L 488.324188 357.318512 C 484.107269 355.386261 479.391296 345.788635 478.858337 341.412811 C 478.747101 340.499359 478.668121 336.61319 478.858337 335.945221 C 480.391815 330.560974 507.540222 308.723694 511.988831 302.145569 L 516.721741 301.151459 Z"/>
            <path id="path8" fill="#ffffff" stroke="none" d="M 418.824951 261.884216 C 421.459839 261.868378 424.320709 262.45813 425.05249 265.612152 C 425.962097 269.532623 425.445007 306.740631 424.554291 311.341064 C 423.111511 318.792664 407.197144 324.093597 400.889648 320.53656 C 398.942261 319.438324 370.118805 291.031891 369.253784 288.973663 C 366.842804 283.237091 373.129211 280.189056 377.474152 277.292908 C 386.065582 271.566193 408.77948 261.944672 418.824951 261.884216 Z"/>
            <path id="path9" fill="#ffffff" stroke="none" d="M 354.805908 301.151459 L 388.185486 334.454041 C 390.222046 340.74765 386.827118 354.710846 379.965149 356.821442 C 377.075653 357.710205 336.62973 358.504883 333.134125 357.815552 C 329.825775 357.163177 328.87326 355.217194 328.899384 352.099457 C 328.993713 340.843018 340.494476 313.301483 348.329285 304.879364 C 350.242188 302.823059 351.702057 300.803619 354.805908 301.151459 Z"/>
            <path id="path10" fill="#ffffff" stroke="none" d="M 536.649841 375.709473 C 537.276367 376.887299 538.477295 377.525177 539.140869 378.691803 C 539.25177 380.528961 538.920715 382.362946 538.6427 384.159424 C 536.795471 396.092529 526.624756 425.919312 515.725342 431.876526 L 511.988831 431.379486 L 478.858337 397.579834 C 477.912018 391.994141 482.747498 378.758942 488.324188 376.206543 L 536.649841 375.709473 Z"/>
            <path id="path11" fill="#ffffff" stroke="none" d="M 333.134125 375.709473 C 335.968018 375.150696 375.406647 375.629669 378.470551 376.206543 C 385.688843 377.565613 391.294312 392.955963 388.185486 399.31955 C 382.680695 403.096283 358.880646 431.00354 355.055023 431.876526 C 349.626404 433.115295 343.302155 421.621704 340.856232 417.21344 C 337.415588 411.01239 326.322784 383.533691 329.397583 377.946228 C 329.85614 377.112946 332.281799 375.877563 333.134125 375.709473 Z"/>
            <path id="path12" fill="#201824" stroke="none" d="M 454.446442 262.878326 C 449.554413 262.13562 445.653717 260.213531 442.987762 265.612152 L 443.485992 310.59549 C 442.343933 307.003906 441.052917 271.883789 441.991364 266.606262 C 443.142426 260.13327 449.836212 259.834015 454.446442 262.878326 Z"/>
            <path id="path13" fill="#201824" stroke="none" d="M 450.959015 413.982635 C 449.447479 415.529541 445.430573 417.808929 444.482391 419.69873 C 441.022308 426.594879 444.028503 459.641602 443.485992 469.155579 C 443.449554 469.086487 442.672546 469.359314 442.489563 468.907043 C 441.621826 466.762177 441.857239 426.106567 442.489563 422.681061 C 443.300781 418.286377 447.190369 415.578979 450.959015 413.982635 Z"/>
            <path id="path14" fill="#201824" stroke="none" d="M 536.649841 375.709473 L 488.324188 376.206543 C 488.853149 375.964478 489.5802 375.582062 490.067932 375.212433 L 536.649841 375.709473 Z"/>
            <path id="path15" fill="#201824" stroke="none" d="M 439.500366 402.550385 C 437.675232 404.111908 431.192719 403.836273 428.789001 403.544495 C 416.52298 402.055664 401.958801 390.540802 399.145966 378.194763 C 406.333496 394.651733 421.08432 405.066376 439.500366 402.550385 Z"/>
            <path id="path16" fill="#201824" stroke="none" d="M 515.725342 431.876526 C 515.441223 432.03186 516.546448 432.582275 515.974487 432.870667 C 515.194031 432.769775 514.198669 433.018494 513.483398 432.870667 C 511.183868 432.395386 481.117645 402.605652 479.854767 400.31366 C 479.215271 399.153015 479.087616 398.932983 478.858337 397.579834 L 511.988831 431.379486 L 515.725342 431.876526 Z"/>
            <path id="path17" fill="#201824" stroke="none" d="M 516.721741 301.151459 L 511.988831 302.145569 C 507.540222 308.723694 480.391815 330.560974 478.858337 335.945221 C 480.04776 332.497711 510.919708 301.188843 513.483398 300.654419 C 514.620239 300.41745 515.657654 300.602966 516.721741 301.151459 Z"/>
            <path id="path18" fill="#201824" stroke="none" d="M 536.151611 357.318512 C 535.897156 357.464325 537.016357 358.148438 536.400757 358.312622 C 525.549744 356.448944 496.805878 361.204895 488.324188 357.318512 L 536.151611 357.318512 Z"/>
            <path id="path19" fill="#201824" stroke="none" d="M 425.05249 469.155579 C 423.955231 454.866455 426.721588 437.909424 424.554291 423.923706 L 425.55069 423.178101 C 423.667755 432.288727 428.780426 462.654602 425.05249 469.155579 Z"/>
            <path id="path20" fill="#201824" stroke="none" d="M 499.782867 445.296997 L 464.908691 411.497375 C 466.000214 411.695007 466.640778 412.213501 467.648804 412.491455 C 471.453094 417.886658 499.016632 441.387573 499.782867 445.296997 Z"/>
            <path id="path21" fill="#201824" stroke="none" d="M 464.908691 322.02774 C 470.126465 320.680023 493.024017 292.395233 499.782867 288.228088 C 499.024445 292.120697 471.447449 315.650848 467.648804 321.03363 C 466.730133 321.39856 465.847351 321.718597 464.908691 322.02774 Z"/>
            <path id="path22" fill="#201824" stroke="none" d="M 388.185486 334.454041 L 354.805908 301.151459 C 355.396881 301.217712 356.026215 301.399384 356.549622 301.648499 C 358.757507 302.699432 387.479095 332.271057 388.185486 334.454041 Z"/>
            <path id="path23" fill="#201824" stroke="none" d="M 464.908691 322.02774 C 459.398376 323.842285 460.049072 322.788788 455.442841 321.03363 C 458.436096 321.303467 461.852386 322.817108 464.908691 322.02774 Z"/>
            <path id="path24" fill="#201824" stroke="none" d="M 538.6427 384.159424 C 538.920715 382.362946 539.25177 380.528961 539.140869 378.691803 C 539.177551 378.756378 540.016724 378.502136 540.137268 378.940338 C 540.308655 379.563293 539.757568 384.740051 538.6427 384.159424 Z"/>
            <path id="path25" fill="#201824" stroke="none" d="M 451.457214 471.143768 C 453.091614 472.309082 446.828125 472.814331 446.226074 472.634949 C 445.783447 472.503052 446.04364 471.679626 445.97699 471.640808 C 447.897949 471.939087 449.623749 471.420074 451.457214 471.143768 Z"/>
            <path id="path26" fill="#201824" stroke="none" d="M 478.858337 341.412811 C 476.496368 340.917603 478.331482 337.472382 478.858337 335.945221 C 478.668121 336.61319 478.747101 340.499359 478.858337 341.412811 Z"/>
        </g>
        <g id="Generative-Object">
            <path id="path27" fill="#363143" stroke="none" d="M 250.998367 184.696655 C 251.378387 184.691986 252.189835 184.614075 252.453461 184.789764 C 252.844086 185.050049 254.989914 192.700684 255.460617 192.889374 C 255.675446 192.975525 259.900269 192.971344 260.116852 192.889374 C 260.601227 192.706085 262.821228 185.787018 263.124023 184.789764 C 263.507355 184.482819 269.363312 185.366058 269.526398 185.720734 L 269.526398 193.913483 C 269.631348 194.153412 274.402283 195.549438 274.667664 195.496185 C 275.270325 195.375214 279.631226 188.907288 280.099976 188.79303 C 280.749969 188.634583 284.779388 190.972137 285.726257 191.213593 C 285.981293 191.62323 283.235413 198.658173 283.495148 199.499451 C 283.570435 199.743347 287.595551 202.395477 287.860382 202.385529 C 288.294861 202.369202 293.735016 197.708435 294.650757 197.171967 L 299.598022 201.175232 C 299.164673 202.149384 294.905518 208.012085 294.941772 208.436981 C 294.963226 208.688477 297.876312 211.879608 298.336945 212.254059 L 306.679413 209.274872 L 309.880585 214.209137 C 309.889679 214.837158 303.175079 219.55368 303.09021 219.981293 C 303.04541 220.207153 304.642578 224.12854 304.836304 224.263855 C 305.619141 224.810699 312.615356 223.77597 314.051819 223.984558 L 315.506866 229.849823 C 314.589935 230.423126 307.697113 232.884186 307.55246 233.387604 C 307.487518 233.613556 308.029144 237.831055 308.134491 238.042572 C 308.449036 238.674103 316.595642 239.734619 316.86496 240.276947 L 316.379944 246.142181 C 314.612488 246.602905 309.377319 246.483368 308.037476 247.073181 C 307.770416 247.190765 306.720093 251.57901 306.776398 251.821259 C 306.957642 252.600922 314.63031 255.732574 314.730835 256.290009 L 312.693726 261.782898 C 312.210754 262.007446 305.871948 260.427307 304.739288 260.479492 C 303.839813 260.520935 301.710571 264.405334 301.732117 264.668945 C 301.765961 265.082458 307.084412 269.859985 307.74646 270.627319 L 304.642303 275.282257 C 303.821869 275.825684 297.204681 271.90506 296.396851 272.023834 C 296.151917 272.059814 293.180023 275.282379 293.195648 275.654694 C 293.226257 276.381958 297.518066 282.490112 297.463898 282.916443 L 292.904663 286.547302 C 291.893982 285.925018 286.552795 281.160187 285.920258 281.147522 C 285.695648 281.143036 282.193817 283.266357 282.137085 283.475037 C 281.899963 284.346771 284.578156 291.309937 284.174194 291.947052 C 283.265778 292.110321 279.526123 294.140503 278.935913 293.995239 C 278.375488 293.85733 274.140015 287.009521 273.697601 286.919708 C 273.490326 286.877625 269.79892 287.923035 269.623383 288.036896 C 268.844238 288.542267 269.023407 295.482391 268.944366 296.695129 L 262.930023 297.439911 C 262.59729 296.493835 260.507599 289.711304 260.116852 289.526489 C 259.912354 289.429749 255.755661 289.501831 255.557617 289.619598 C 255.116623 289.881744 253.310669 296.605042 252.744461 297.53302 L 247.021149 296.695129 C 246.586365 295.295685 246.985413 289.126434 246.439117 288.316162 C 246.330795 288.155518 242.855316 287.105225 242.655914 287.105896 C 241.871582 287.108551 241.880447 287.292328 241.394852 287.757599 C 240.639954 288.480835 237.398224 293.868744 237.029617 293.995239 C 236.609222 294.139496 231.585526 292.058502 231.500305 291.667755 C 231.616669 290.328278 233.796127 284.478058 233.63443 283.661224 C 233.591492 283.444305 230.080795 281.162079 229.851212 281.147522 C 229.359253 281.116364 223.731705 285.907501 222.866837 286.547302 L 218.307587 282.730225 C 218.857605 281.678101 222.716949 275.973785 222.575821 275.282257 C 222.530975 275.062531 219.605286 272.057648 219.374664 272.023834 C 218.84198 271.945648 211.806 275.557983 211.226212 275.375366 C 210.961548 275.292023 208.614975 271.445343 208.025024 270.999695 C 207.940964 270.242188 213.956161 265.187531 214.039352 264.668945 C 214.075684 264.442627 212.102951 260.700806 211.905243 260.572601 C 211.441437 260.27182 204.377792 261.613037 203.271774 261.782898 L 201.040649 256.290009 C 201.138474 255.778656 208.878922 252.430664 208.995087 252.007446 C 209.05809 251.777924 208.179703 247.53772 208.025024 247.352478 C 207.494507 246.717163 199.375992 246.460388 199.10054 245.862885 L 199.19754 239.99765 C 200.337509 239.705902 207.486237 238.58667 207.831024 238.042572 C 207.952423 237.850983 208.283218 233.789368 208.219055 233.573792 C 208.031799 232.944824 200.6754 230.402832 200.361618 229.942932 C 200.010376 229.42807 201.50972 224.910248 201.719696 223.984558 L 210.45018 224.72937 C 210.694138 224.643463 212.54277 220.425507 212.487274 220.16748 C 212.394821 219.73764 206.548706 215.268066 205.890915 214.395325 L 209.286102 209.274872 C 210.493225 209.625671 216.73262 212.538361 217.434555 212.440247 C 217.693283 212.404083 220.800705 208.872559 220.829727 208.623169 C 220.879044 208.199493 216.66951 202.284302 216.173477 201.36142 L 220.732727 197.171967 C 221.800613 197.603912 227.270172 202.53653 227.717102 202.571716 C 227.994705 202.593567 232.219193 199.761078 232.276367 199.499451 C 232.44249 198.739014 230.235519 192.897766 229.948242 191.679108 C 230.028442 190.746796 234.835266 189.359497 235.671539 188.606812 C 236.416107 189.382172 240.474136 195.566223 240.909836 195.682373 C 241.176529 195.753479 245.952316 194.161652 246.051102 193.913483 L 246.051102 185.534546 C 247.610046 185.466644 249.487991 184.715149 250.998367 184.696655 Z"/>
            <g id="g1">
                <path id="path28" fill="#ffffff" stroke="none" d="M 260.019867 254.521118 C 252.848267 255.463654 247.104004 251.562256 244.305008 245.3974 C 240.645523 229.946411 259.62915 221.066406 269.138367 232.82901 C 275.630432 240.859497 270.50235 253.143524 260.019867 254.521118 Z"/>
                <path id="path29" fill="#ffffff" stroke="none" d="M 254.199554 262.527679 C 255.043533 267.766815 253.966263 274.118988 254.393555 279.471771 C 254.357758 279.531799 253.39563 280.383087 253.326492 280.40274 C 250.46312 281.216888 240.212128 277.15094 237.417633 275.561584 C 235.487579 274.463867 231.624649 272.634369 232.664383 270.254913 C 233.017227 269.447418 244.891388 258.32663 245.760086 258.058899 C 247.910431 257.396179 253.586273 259.209259 254.199554 261.503571 C 254.271942 261.774414 254.149521 262.217133 254.199554 262.527679 Z"/>
                <path id="path30" fill="#ffffff" stroke="none" d="M 269.914398 257.872711 L 283.495148 270.53421 C 283.926422 272.650818 279.207764 275.168762 277.383789 276.120178 C 273.567108 278.111084 268.987549 279.591553 264.676117 280.216553 C 263.962128 280.320068 263.29007 280.514465 262.541992 280.40274 C 262.174316 280.196838 261.770966 279.834961 261.57196 279.471771 C 261.783203 275.907776 260.612549 263.52832 261.959961 260.944977 C 262.329224 260.237061 263.893463 259.383179 264.482086 258.803711 C 265.743561 258.289673 268.560486 257.636902 269.914398 257.872711 Z"/>
                <path id="path31" fill="#ffffff" stroke="none" d="M 265.840179 202.199341 C 269.867767 202.787537 274.851685 204.681824 278.353851 206.668091 C 280.017914 207.611847 283.901672 209.688385 283.495148 211.695435 C 280.863129 213.2565 271.94635 223.852112 269.914398 224.356964 C 268.724213 224.652679 267.393829 224.085663 266.22821 223.984558 C 264.022766 223.176147 262.324127 222.349884 261.57196 220.074402 L 261.37793 203.223419 C 262.416107 201.20108 263.93512 201.921082 265.840179 202.199341 Z"/>
                <path id="path32" fill="#ffffff" stroke="none" d="M 290.091522 216.536621 C 291.515137 217.242554 296.011597 225.475464 296.687866 227.243042 C 297.284485 228.80246 299.21933 235.48465 298.821991 236.739166 C 298.708099 237.098724 297.965698 237.40741 297.657898 237.577057 L 279.032898 237.577057 C 277.390747 236.853241 275.55423 233.257904 275.34668 231.618713 C 275.303375 231.27652 275.272614 229.82077 275.34668 229.570526 C 275.943848 227.553558 286.516022 219.373199 288.248413 216.908997 L 290.091522 216.536621 Z"/>
                <path id="path33" fill="#ffffff" stroke="none" d="M 251.96843 201.826935 C 252.994507 201.820984 254.108582 202.041901 254.393555 203.223419 C 254.747772 204.692047 254.546417 218.630341 254.199554 220.353668 C 253.637695 223.145111 247.440323 225.130859 244.984039 223.79837 C 244.225677 223.386963 233.001236 212.745789 232.664383 211.974762 C 231.725479 209.825806 234.173553 208.68399 235.86554 207.599091 C 239.211243 205.453827 248.056519 201.849579 251.96843 201.826935 Z"/>
                <path id="path34" fill="#ffffff" stroke="none" d="M 227.038071 216.536621 L 240.036774 229.011932 C 240.829849 231.369537 239.507797 236.60022 236.835602 237.390869 C 235.710373 237.723785 219.959885 238.021484 218.598602 237.763275 C 217.310287 237.51889 216.939331 236.789886 216.949524 235.621979 C 216.986237 231.405243 221.464905 221.088074 224.51593 217.933105 C 225.260864 217.162811 225.829361 216.406311 227.038071 216.536621 Z"/>
                <path id="path35" fill="#ffffff" stroke="none" d="M 297.851898 244.4664 C 298.095917 244.907623 298.563568 245.146576 298.821991 245.583588 C 298.865173 246.27179 298.736267 246.958832 298.627991 247.631775 C 297.908661 252.10199 293.947906 263.275238 289.703461 265.506866 L 288.248413 265.320648 L 275.34668 252.659149 C 274.978149 250.566711 276.861206 245.608765 279.032898 244.652618 L 297.851898 244.4664 Z"/>
                <path id="path36" fill="#ffffff" stroke="none" d="M 218.598602 244.4664 C 219.702194 244.25708 235.060425 244.436493 236.253571 244.652618 C 239.064529 245.161713 241.247437 250.927032 240.036774 253.310852 C 237.893112 254.725616 228.624847 265.17981 227.135071 265.506866 C 225.021057 265.970886 222.558258 261.665344 221.605774 260.014008 C 220.265915 257.69104 215.946136 247.3974 217.143539 245.304291 C 217.322113 244.992157 218.266708 244.529358 218.598602 244.4664 Z"/>
                <path id="path37" fill="#201824" stroke="none" d="M 265.840179 202.199341 C 263.93512 201.921082 262.416107 201.20108 261.37793 203.223419 L 261.57196 220.074402 C 261.127228 218.728943 260.624451 205.572815 260.989929 203.595825 C 261.438141 201.17099 264.044861 201.058899 265.840179 202.199341 Z"/>
                <path id="path38" fill="#201824" stroke="none" d="M 264.482086 258.803711 C 263.893463 259.383179 262.329224 260.237061 261.959961 260.944977 C 260.612549 263.52832 261.783203 275.907776 261.57196 279.471771 C 261.55777 279.445892 261.255188 279.548096 261.183929 279.378662 C 260.846008 278.575195 260.937683 263.345398 261.183929 262.062195 C 261.499847 260.415894 263.014526 259.401703 264.482086 258.803711 Z"/>
                <path id="path39" fill="#201824" stroke="none" d="M 297.851898 244.4664 L 279.032898 244.652618 C 279.238892 244.56192 279.522003 244.418671 279.711945 244.280212 L 297.851898 244.4664 Z"/>
                <path id="path40" fill="#201824" stroke="none" d="M 260.019867 254.521118 C 259.309113 255.106079 256.784698 255.002838 255.848633 254.893555 C 251.071991 254.335815 245.400391 250.022308 244.305008 245.3974 C 247.104004 251.562256 252.848267 255.463654 260.019867 254.521118 Z"/>
                <path id="path41" fill="#201824" stroke="none" d="M 289.703461 265.506866 C 289.592804 265.565033 290.023224 265.77121 289.800476 265.879242 C 289.496552 265.841461 289.108978 265.934631 288.830444 265.879242 C 287.934937 265.701202 276.226532 254.54184 275.734711 253.683258 C 275.485687 253.248474 275.435974 253.166046 275.34668 252.659149 L 288.248413 265.320648 L 289.703461 265.506866 Z"/>
                <path id="path42" fill="#201824" stroke="none" d="M 290.091522 216.536621 L 288.248413 216.908997 C 286.516022 219.373199 275.943848 227.553558 275.34668 229.570526 C 275.809906 228.279053 287.832031 216.550629 288.830444 216.350403 C 289.273132 216.261627 289.677124 216.331146 290.091522 216.536621 Z"/>
                <path id="path43" fill="#201824" stroke="none" d="M 297.657898 237.577057 C 297.558807 237.631683 297.994659 237.887939 297.754913 237.949463 C 293.529327 237.251312 282.335846 239.032928 279.032898 237.577057 L 297.657898 237.577057 Z"/>
                <path id="path44" fill="#201824" stroke="none" d="M 254.393555 279.471771 C 253.966263 274.118988 255.043533 267.766815 254.199554 262.527679 L 254.58757 262.248383 C 253.854309 265.661255 255.845306 277.036469 254.393555 279.471771 Z"/>
                <path id="path45" fill="#201824" stroke="none" d="M 283.495148 270.53421 L 269.914398 257.872711 C 270.339447 257.946747 270.588928 258.140991 270.981476 258.245087 C 272.462952 260.266174 283.196747 269.069733 283.495148 270.53421 Z"/>
                <path id="path46" fill="#201824" stroke="none" d="M 269.914398 224.356964 C 271.94635 223.852112 280.863129 213.2565 283.495148 211.695435 C 283.199799 213.153656 272.460754 221.96817 270.981476 223.984558 C 270.623718 224.121277 270.279938 224.24115 269.914398 224.356964 Z"/>
                <path id="path47" fill="#201824" stroke="none" d="M 240.036774 229.011932 L 227.038071 216.536621 C 227.268204 216.561432 227.513275 216.629486 227.717102 216.722809 C 228.576904 217.116486 239.761688 228.194153 240.036774 229.011932 Z"/>
                <path id="path48" fill="#201824" stroke="none" d="M 269.914398 224.356964 C 267.768585 225.036713 268.021973 224.642059 266.22821 223.984558 C 267.393829 224.085663 268.724213 224.652679 269.914398 224.356964 Z"/>
                <path id="path49" fill="#201824" stroke="none" d="M 298.627991 247.631775 C 298.736267 246.958832 298.865173 246.27179 298.821991 245.583588 C 298.836273 245.607788 299.163055 245.512543 299.210022 245.676697 C 299.276733 245.910065 299.062134 247.849304 298.627991 247.631775 Z"/>
                <path id="path50" fill="#201824" stroke="none" d="M 264.676117 280.216553 C 265.312592 280.653076 262.873444 280.842346 262.639008 280.775146 C 262.466644 280.725708 262.567963 280.417267 262.541992 280.40274 C 263.29007 280.514465 263.962128 280.320068 264.676117 280.216553 Z"/>
                <path id="path51" fill="#201824" stroke="none" d="M 275.34668 231.618713 C 274.42691 231.433197 275.141541 230.142609 275.34668 229.570526 C 275.272614 229.82077 275.303375 231.27652 275.34668 231.618713 Z"/>
            </g>
        </g>
    </g>
    <g id="Layer-4">
        <g id="g2">
            <path id="path52" fill="#66806c" stroke="none" d="M 486.390503 358.464203 L 486.390503 358.464203 C 486.391022 358.463715 479.307983 350.209961 475.976288 346.585327 C 469.42868 339.462006 463.521881 333.035919 453.951996 328.526794 C 452.348511 327.771301 440.433319 322.303772 427.685944 323.482086 C 420.178314 324.176025 417.239716 324.921234 417.239044 324.921356 C 411.768219 325.886841 406.783813 326.994629 405.536774 327.101898 C 399.697784 327.604156 393.38385 321.785126 389.062775 317.802765 C 384.499817 313.597443 382.743561 310.659393 375.429504 300.553375 C 370.958862 294.37619 367.237885 289.425903 364.834595 286.262238 C 363.786407 283.115967 362.037018 276.278473 364.834595 269.214996 C 367.697388 261.986694 373.752106 258.484985 380.588043 254.661133 C 387.517944 250.78476 396.453705 247.25943 408.107727 245.577667 C 427.151764 242.829437 442.291687 246.61499 452.888458 249.374695 C 459.673126 251.141602 468.468414 253.494965 478.858368 259.278229 C 487.888367 264.304504 493.831848 269.533081 499.782867 274.76828 C 505.175354 279.512115 512.745239 286.242493 520.570313 296.606354 C 527.43689 305.700653 535.360107 316.067993 538.971558 331.692627 C 541.846252 344.129486 541.015137 354.748016 539.976746 361.353577 C 531.818542 361.641602 525.190491 361.513397 520.761597 361.353577 C 503.687866 360.737488 486.391754 358.463989 486.390503 358.464203 Z"/>
            <path id="path53" fill="#000000" fill-rule="evenodd" stroke="none" d="M 475.976288 346.585327 C 479.307983 350.209961 486.391022 358.463715 486.390503 358.464203 L 486.402313 358.465729 C 486.913574 358.532196 503.945435 360.746796 520.761597 361.353577 C 525.190491 361.513397 531.818542 361.641602 539.976746 361.353577 C 541.015137 354.748016 541.846252 344.129486 538.971558 331.692627 C 535.360107 316.067993 527.43689 305.700653 520.570313 296.606354 C 512.745239 286.242493 505.175354 279.512115 499.782867 274.76828 C 493.831848 269.533081 487.888367 264.304504 478.858368 259.278229 C 468.468414 253.494965 459.673126 251.141602 452.888458 249.374695 C 442.291687 246.61499 427.151764 242.829437 408.107727 245.577667 C 396.453705 247.25943 387.517944 250.78476 380.588043 254.661133 C 373.752106 258.484985 367.697388 261.986694 364.834595 269.214996 C 362.037018 276.278473 363.786407 283.115967 364.834595 286.262238 C 367.237885 289.425903 370.958862 294.37619 375.429504 300.553375 C 382.743561 310.659393 384.499817 313.597443 389.062775 317.802765 C 393.383911 321.785187 399.697815 327.604156 405.536774 327.101898 C 406.783813 326.994629 411.768219 325.886841 417.239044 324.921356 C 417.239716 324.921234 420.178314 324.176025 427.685944 323.482086 C 440.433319 322.303772 452.348511 327.771301 453.951996 328.526794 C 463.521881 333.035919 469.42868 339.462006 475.976288 346.585327 Z M 493.609955 355.106354 C 491.757568 354.910522 489.960632 354.720581 488.545807 354.580261 L 488.387756 354.396881 C 487.494934 353.361328 486.540802 352.258545 485.577881 351.150574 C 482.822052 347.979645 480.536102 345.389008 479.043915 343.765625 C 469.196228 333.052063 464.390167 328.83902 455.727966 324.757568 C 454.850677 324.344238 453.806641 323.889679 452.476105 323.371521 C 450.506073 322.604279 448.372894 321.88678 446.103973 321.262085 C 439.841156 319.537781 433.488281 318.761322 427.302429 319.333099 C 426.815643 319.378113 426.339844 319.424011 425.874939 319.470825 C 422.950195 319.765259 420.554016 320.08316 418.644135 320.404694 C 417.956085 320.520508 417.374054 320.629791 416.89267 320.730103 C 416.71463 320.767212 416.559845 320.801117 416.427582 320.831573 C 416.335999 320.852661 416.280701 320.866028 416.21582 320.882294 C 415.848724 320.935669 415.167389 321.059204 414.464172 321.189697 C 413.406189 321.385986 412.334473 321.591095 411.108124 321.830658 C 410.43689 321.961761 408.394897 322.364197 408.248138 322.392975 C 406.404846 322.754547 405.438995 322.928253 405.179688 322.950562 C 404.608368 322.999695 403.962524 322.929871 403.233795 322.729736 C 400.959534 322.105133 398.264038 320.359955 394.978546 317.524384 C 394.074158 316.743835 393.3638 316.100342 391.886505 314.738861 C 391.252014 314.154083 390.684174 313.603302 390.153534 313.058197 C 389.508698 312.395782 388.904968 311.7276 388.290009 310.996582 C 387.259491 309.771545 386.187561 308.36438 384.560181 306.117523 C 384.003082 305.348358 380.230988 300.080933 378.804901 298.110474 C 375.1539 293.065796 371.795166 288.545502 368.58371 284.309967 C 367.192627 279.805359 366.948547 275.192871 368.708496 270.749298 C 370.658203 265.826447 373.773285 263.247375 382.622162 258.297546 C 390.131927 254.096802 398.641846 251.153488 408.70285 249.701614 C 423.622437 247.548584 434.751038 248.956833 451.838379 253.40686 C 462.367737 256.148987 468.646027 258.362488 476.831879 262.918915 C 484.019104 266.919434 488.322083 270.235565 496.987274 277.858429 L 497.030762 277.896698 C 505.73642 285.555176 511.038086 290.896332 517.245056 299.117065 C 519.48407 302.082489 520.216675 303.061371 521.334351 304.601715 C 528.376221 314.306488 532.546265 322.396057 534.911926 332.630951 C 536.914185 341.293518 537.201233 349.483185 536.321777 357.291382 C 530.829773 357.415955 525.762634 357.364655 520.911865 357.189606 C 520.699158 357.181946 520.485718 357.173981 520.271606 357.165741 C 514.094543 356.927887 507.484039 356.462555 500.745941 355.836304 C 498.836395 355.658813 496.170227 355.376984 493.609955 355.106354 Z"/>
        </g>
        <g id="g3">
            <path id="path54" fill="#ff9c2a" stroke="none" d="M 272.99585 241.039185 C 272.99585 249.330688 266.274261 256.052277 257.982758 256.052277 C 249.691254 256.052277 242.969635 249.330688 242.969635 241.039185 C 242.969635 232.74765 249.691254 226.026062 257.982758 226.026062 C 266.274261 226.026062 272.99585 232.74765 272.99585 241.039185 Z"/>
            <path id="path55" fill="#000000" fill-rule="evenodd" stroke="none" d="M 257.982758 256.052277 C 266.274261 256.052277 272.99585 249.330688 272.99585 241.039185 C 272.99585 232.74765 266.274261 226.026062 257.982758 226.026062 C 249.691254 226.026062 242.969635 232.74765 242.969635 241.039185 C 242.969635 249.330688 249.691254 256.052277 257.982758 256.052277 Z M 268.829193 241.039185 C 268.829193 247.029495 263.973083 251.885605 257.982758 251.885605 C 251.992432 251.885605 247.136307 247.029495 247.136307 241.039185 C 247.136307 235.048843 251.992432 230.192734 257.982758 230.192734 C 263.973083 230.192734 268.829193 235.048843 268.829193 241.039185 Z"/>
        </g>
        <g id="g4">
            <path id="path56" fill="#ff9c2a" stroke="none" d="M 446.505035 366.560577 C 446.505035 373.42099 440.943604 378.982452 434.083191 378.982452 C 427.222748 378.982452 421.661285 373.42099 421.661285 366.560577 C 421.661285 359.700165 427.222748 354.138702 434.083191 354.138702 C 440.943604 354.138702 446.505035 359.700165 446.505035 366.560577 Z"/>
            <path id="path57" fill="#000000" fill-rule="evenodd" stroke="none" d="M 434.083191 378.982452 C 440.943604 378.982452 446.505035 373.42099 446.505035 366.560577 C 446.505035 359.700165 440.943604 354.138702 434.083191 354.138702 C 427.222748 354.138702 421.661285 359.700165 421.661285 366.560577 C 421.661285 373.42099 427.222748 378.982452 434.083191 378.982452 Z M 442.338379 366.560577 C 442.338379 371.119812 438.642395 374.815796 434.083191 374.815796 C 429.523926 374.815796 425.827942 371.119812 425.827942 366.560577 C 425.827942 362.001343 429.523926 358.305359 434.083191 358.305359 C 438.642395 358.305359 442.338379 362.001343 442.338379 366.560577 Z"/>
        </g>
        <path id="path58" fill="#ffffff" stroke="#000000" stroke-width="1.041667" d="M 418.636902 282.95459 C 418.636902 288.0177 414.53241 292.122162 409.46933 292.122162 C 404.406189 292.122162 400.301758 288.0177 400.301758 282.95459 C 400.301758 277.891479 404.406189 273.787018 409.46933 273.787018 C 414.53241 273.787018 418.636902 277.891479 418.636902 282.95459 Z"/>
        <path id="path59" fill="none" stroke="#000000" stroke-width="1.041667" d="M 409.46933 273.787018 L 409.46933 290.915192"/>
        <path id="path60" fill="none" stroke="#000000" stroke-width="1.041667" d="M 266.546844 241.104248 L 249.418671 241.104248"/>
        <path id="path61" fill="#363143" stroke="none" d="M 331.21936 226.026093 C 342.915833 223.324829 352.408173 221.369354 358.963867 220.074402 C 371.996613 217.5 378.504181 215.724091 382.798889 214.313019 C 398.852753 209.038361 413.558533 200.904999 413.558472 200.905273 C 413.558472 200.905273 413.530304 200.918427 413.530304 200.918427 C 413.530304 200.918427 413.539734 200.914032 413.558472 200.905273 C 413.559814 200.904419 413.564362 200.901489 413.565735 200.900604 C 418.355194 197.826874 422.165741 192.632721 424.554291 184.675446 L 424.554291 184.675446 L 424.554291 184.675446 C 418.783295 189.462067 407.941742 196.754456 393.853027 197.01825 C 384.719299 197.18927 377.001129 194.354156 371.495697 192.331879 C 362.569336 189.053009 361.339752 186.79834 350.084381 181.80957 C 340.824524 177.705322 333.340881 175.694275 328.871338 174.283569 C 314.915375 169.878571 303.575653 169.028381 297.888916 168.544617 C 284.729797 167.425171 268.499603 168.020203 268.132263 170.755463 C 267.729095 173.757751 286.501587 174.570343 303.215576 186.07132 C 319.528687 197.296448 327.275665 214.158417 331.21936 226.026093 Z"/>
        <path id="path62" fill="#ffffff" stroke="#000000" stroke-width="1.041667" d="M 353.645477 201.499451 C 353.645477 206.562561 349.541016 210.667023 344.477936 210.667023 C 339.414825 210.667023 335.310364 206.562561 335.310364 201.499451 C 335.310364 196.43634 339.414825 192.331879 344.477936 192.331879 C 349.541016 192.331879 353.645477 196.43634 353.645477 201.499451 Z"/>
        <path id="path63" fill="none" stroke="#000000" stroke-width="1.041667" d="M 344.477936 192.331879 L 344.477936 209.460052"/>
    </g>
    <g id="Layer-3"/>
    <g id="Layer-5"/>
</svg>
